<svg xmlns="http://www.w3.org/2000/svg" xmlns:xlink="http://www.w3.org/1999/xlink" version="1.1" style="" xml:space="preserve" width="230" height="100"><rect id="backgroundrect" width="100%" height="100%" x="0" y="0" fill="none" stroke="none"/>
<style type="text/css">
	.st0{fill:#A0A0A0;}
	.st1{fill:#FF910D;}
	.st2{fill:#98C226;}
	.st3{fill:#00A0DC;}
</style>

<g class="currentLayer" style=""><title>Layer 1</title><g id="svg_1" class="">
	<g id="svg_2">
		<path class="st0" d="M25.4999984741211,100 c-5.8,0 -9.3,-1 -11.7,-3.5 c-2.6,-2.6 -3.5,-5.5 -3.5,-11.5 v-22.2 c0,-3.3 -0.7000000000000001,-5.6 -2.1,-7 c-1.2,-1.2 -3,-2.1 -5.2,-2.1 h-3 v-7.4 h3 c2.2,0 4.1,-0.9 5.2,-2.1 c1.4,-1.4 2.1,-3.7 2.1,-7 V15 c0,-6 0.9,-9 3.5,-11.5 C16.199998474121088,1 19.699998474121088,0 25.4999984741211,0 h4.3 v7.4 H27.099998474121094 c-4.1,0 -5.7,0.30000000000000004 -6.9,1.5 c-1.3,1.3 -1.6,3.4 -1.6,7.6 v21.9 c0,6.6 -2.9,9.5 -7.3,11.6 c4.4,2.1 7.3,5 7.3,11.6 v21.9 c0,4.2 0.30000000000000004,6.3 1.6,7.6 c1.2,1.2 2.8,1.5 6.9,1.5 h2.7 v7.4 H25.4999984741211 z" id="svg_3"/>
		<path class="st0" d="M98.0999984741211,53.7 c-2.2,0 -4.1,0.9 -5.2,2.1 c-1.4,1.4 -2.1,3.7 -2.1,7 V85 c0,6 -0.9,9 -3.5,11.5 c-2.4,2.4 -5.9,3.5 -11.7,3.5 H71.0999984741211 v-7.4 h2.8 c4.1,0 5.6,-0.30000000000000004 6.8,-1.5 c1.3,-1.3 1.7000000000000002,-3.4 1.7000000000000002,-7.6 v-21.9 c0,-6.6 2.9,-9.5 7.3,-11.6 c-4.4,-2.1 -7.3,-5 -7.3,-11.6 V16.5 c0,-4.2 -0.5,-6.3 -1.7000000000000002,-7.6 c-1.2,-1.2 -2.7,-1.5 -6.8,-1.5 H71.0999984741211 V0 h4.4 c5.8,0 9.3,1 11.7,3.5 c2.6,2.6 3.5,5.5 3.5,11.5 v22.2 c0,3.3 0.7000000000000001,5.6 2.1,7 c1.2,1.2 3,2.1 5.2,2.1 h2.9 v7.4 H98.0999984741211 z" id="svg_4"/>
	</g>
	<g id="svg_5">
		<g id="svg_6">
			<path class="st1" d="M55.7999984741211,87.6 v1.4 c0,1.1 -0.8,2 -1.8,2.2 l-0.30000000000000004,1.2 c-0.2,0.7000000000000001 -0.8,1.2 -1.5,1.2 h-3.4 c-0.7000000000000001,0 -1.3,-0.5 -1.5,-1.2 l-0.30000000000000004,-1.2 c-1.1,-0.2 -1.9,-1.1 -1.9,-2.2 v-1.4 c0,-0.7000000000000001 0.6000000000000001,-1.3 1.3,-1.3 h8.1 C55.19999847412109,86.30000000000001 55.7999984741211,86.9 55.7999984741211,87.6 L55.7999984741211,87.6 zM61.9999984741211,69.1 c0,3.1 -1.2,6 -3.2,8 c-1.5,1.6 -2.5,3.6 -2.8,5.8 c-0.1,0.9 -0.9,1.6 -1.9,1.6 h-7.2 c-0.9,0 -1.8,-0.7000000000000001 -1.9,-1.6 c-0.30000000000000004,-2.2 -1.3,-4.2 -2.9,-5.8 c-2,-2 -3.2,-4.8 -3.2,-7.9 c-0.1,-6.4 5.1,-11.7 11.5,-11.7 C56.7999984741211,57.5 61.9999984741211,62.7 61.9999984741211,69.1 L61.9999984741211,69.1 zM51.7999984741211,62.099999999999994 c0,-0.7000000000000001 -0.6000000000000001,-1.3 -1.3,-1.3 c-4.6,0 -8.4,3.7 -8.4,8.4 c0,0.7000000000000001 0.6000000000000001,1.3 1.3,1.3 c0.7000000000000001,0 1.3,-0.6000000000000001 1.3,-1.3 c0,-3.2 2.6,-5.7 5.7,-5.7 C51.19999847412109,63.400000000000006 51.7999984741211,62.8 51.7999984741211,62.099999999999994 L51.7999984741211,62.099999999999994 zM50.4999984741211,53.7 c0.7000000000000001,0 1.3,-0.6000000000000001 1.3,-1.3 v-4.6 c0,-0.7000000000000001 -0.6000000000000001,-1.3 -1.3,-1.3 s-1.3,0.6000000000000001 -1.3,1.3 v4.6 C49.19999847412109,53.099999999999994 49.7999984741211,53.7 50.4999984741211,53.7 L50.4999984741211,53.7 zM35.099998474121094,69.1 c0,-0.7000000000000001 -0.6000000000000001,-1.3 -1.3,-1.3 h-4.6 c-0.7000000000000001,0 -1.3,0.6000000000000001 -1.3,1.3 c0,0.7000000000000001 0.6000000000000001,1.3 1.3,1.3 h4.6 C34.4999984741211,70.4 35.099998474121094,69.8 35.099998474121094,69.1 L35.099998474121094,69.1 zM71.69999847412109,67.8 H67.0999984741211 c-0.7000000000000001,0 -1.3,0.6000000000000001 -1.3,1.3 c0,0.7000000000000001 0.6000000000000001,1.3 1.3,1.3 h4.6 c0.7000000000000001,0 1.3,-0.6000000000000001 1.3,-1.3 C72.9999984741211,68.4 72.39999847412109,67.8 71.69999847412109,67.8 L71.69999847412109,67.8 zM37.7999984741211,79.9 l-3.2,3.2 c-0.5,0.5 -0.5,1.3 0,1.8 c0.30000000000000004,0.30000000000000004 0.6000000000000001,0.4 0.9,0.4 c0.30000000000000004,0 0.7000000000000001,-0.1 0.9,-0.4 l3.2,-3.2 c0.5,-0.5 0.5,-1.3 0,-1.8 C39.099998474121094,79.4 38.2999984741211,79.4 37.7999984741211,79.9 L37.7999984741211,79.9 zM62.2999984741211,58.599999999999994 c0.30000000000000004,0 0.7000000000000001,-0.1 0.9,-0.4 l3.2,-3.2 c0.5,-0.5 0.5,-1.3 0,-1.8 c-0.5,-0.5 -1.3,-0.5 -1.8,0 l-3.2,3.2 c-0.5,0.5 -0.5,1.3 0,1.8 C61.599998474121094,58.5 61.89999847412109,58.599999999999994 62.2999984741211,58.599999999999994 L62.2999984741211,58.599999999999994 zM37.7999984741211,58.2 c0.30000000000000004,0.30000000000000004 0.6000000000000001,0.4 0.9,0.4 c0.30000000000000004,0 0.7000000000000001,-0.1 0.9,-0.4 c0.5,-0.5 0.5,-1.3 0,-1.8 l-3.2,-3.2 c-0.5,-0.5 -1.3,-0.5 -1.8,0 c-0.5,0.5 -0.5,1.3 0,1.8 L37.7999984741211,58.2 zM63.19999847412109,79.9 c-0.5,-0.5 -1.3,-0.5 -1.8,0 c-0.5,0.5 -0.5,1.3 0,1.8 l3.2,3.2 c0.30000000000000004,0.30000000000000004 0.6000000000000001,0.4 0.9,0.4 c0.30000000000000004,0 0.7000000000000001,-0.1 0.9,-0.4 c0.5,-0.5 0.5,-1.3 0,-1.8 L63.19999847412109,79.9 zM63.19999847412109,79.9 " id="svg_7"/>
		</g>
	</g>
	<g id="svg_8">
		<g id="svg_9">
			<path class="st1" d="M124.19999847412109,34 v-8.6 l-2.5,4.4 h-2.8 l-2.5,-4.4 V34 h-4.4 V16.099999999999994 h4.3 l4,7.9 l4,-7.9 h4.3 V34 H124.19999847412109 z" id="svg_10"/>
			<path class="st1" d="M132.1999984741211,34 V16.099999999999994 h12.2 V20 h-7.8 v3 h6.6 v3.9 h-6.6 v3.1 h7.8 V34 H132.1999984741211 z" id="svg_11"/>
			<path class="st1" d="M147.4999984741211,34 V16.099999999999994 h12.2 V20 h-7.8 v3 h6.6 v3.9 h-6.6 v3.1 h7.8 V34 H147.4999984741211 z" id="svg_12"/>
			<path class="st1" d="M170.4999984741211,20 v14 H166.0999984741211 V20 h-4.4 v-3.9 h13.2 V20 H170.4999984741211 z" id="svg_13"/>
		</g>
		<g id="svg_14">
			<path class="st2" d="M192.9999984741211,34 l-0.8,-2.7 h-5.5 l-0.9,2.7 h-4.6 l6.5,-17.9 h3.4 l6.5,17.9 H192.9999984741211 zM189.4999984741211,22.900000000000006 l-1.6,4.8 h3.1 L189.4999984741211,22.900000000000006 z" id="svg_15"/>
			<path class="st2" d="M209.49999847412107,34 l-5.7,-9 v9 h-4.4 V16.099999999999994 h3.8 l5.7,9 v-9 h4.4 V34 H209.49999847412107 z" id="svg_16"/>
		</g>
		<path class="st2" d="M228.19999847412112,32.3 c-1.2,1.2 -2.9,1.7000000000000002 -4.8,1.7000000000000002 h-6.5 V16.400000000000006 h6.5 c1.8,0 3.5,0.5 4.8,1.7000000000000002 c2.1,2.1 1.8,4.3 1.8,7.1 S230.29999847412108,30.200000000000003 228.19999847412112,32.3 zM225.19999847412112,21.200000000000003 c-0.4,-0.6000000000000001 -1,-1 -2.1,-1 h-1.9 v9.9 h1.9 c1.1,0 1.7000000000000002,-0.4 2.1,-1 c0.30000000000000004,-0.5 0.5,-1 0.5,-4 C225.69999847412112,22.200000000000003 225.5999984741211,21.700000000000003 225.19999847412112,21.200000000000003 z" id="svg_17"/>
		<g id="svg_18">
			<path class="st3" d="M125.19999847412109,83.80000000000001 c-4.1,0 -7.2,-1.4 -9.7,-3.9 c-3.7,-3.7 -3.5,-8.6 -3.5,-13.9 c0,-5.3 -0.1,-10.2 3.5,-13.9 c2.6,-2.6 5.7,-3.9 9.7,-3.9 c6.6,0 12,3.7 13.3,11.4 h-8.8 c-0.5,-2 -1.6,-3.7 -4.5,-3.7 c-1.6,0 -2.8,0.6000000000000001 -3.4,1.5 c-0.8,1 -1.3,2.3 -1.3,8.7 c0,6.4 0.5,7.6 1.3,8.7 c0.6000000000000001,0.8 1.8,1.5 3.4,1.5 c2.9,0 3.9,-1.8 4.5,-3.7 h8.8 C137.1999984741211,80.1 131.79999847412108,83.80000000000001 125.19999847412109,83.80000000000001 z" id="svg_19"/>
			<path class="st3" d="M164.9999984741211,79.9 c-2.6,2.6 -5.5,3.9 -9.8,3.9 c-4.3,0 -7.2,-1.4 -9.8,-3.9 c-3.7,-3.7 -3.5,-8.6 -3.5,-13.9 c0,-5.3 -0.1,-10.2 3.5,-13.9 c2.6,-2.6 5.5,-3.9 9.8,-3.9 c4.3,0 7.2,1.4 9.8,3.9 c3.7,3.7 3.5,8.6 3.5,13.9 C168.4999984741211,71.3 168.6999984741211,76.2 164.9999984741211,79.9 zM158.5999984741211,57.400000000000006 c-0.6000000000000001,-0.8 -1.9,-1.5 -3.4,-1.5 c-1.6,0 -2.8,0.7000000000000001 -3.4,1.5 c-0.8,1 -1.3,2.2 -1.3,8.6 c0,6.4 0.5,7.5 1.3,8.6 c0.6000000000000001,0.8 1.9,1.6 3.4,1.6 c1.6,0 2.8,-0.7000000000000001 3.4,-1.6 c0.8,-1 1.3,-2.2 1.3,-8.6 C159.8999984741211,59.599999999999994 159.3999984741211,58.400000000000006 158.5999984741211,57.400000000000006 z" id="svg_20"/>
			<path class="st3" d="M196.8999984741211,80.1 c-2.4,2.4 -5.8,3.4 -9.4,3.4 h-13 v-35 h13 c3.6,0 7,1 9.4,3.4 c4.1,4.1 3.6,8.6 3.6,14.1 C200.4999984741211,71.5 200.9999984741211,76 196.8999984741211,80.1 zM190.9999984741211,58.099999999999994 c-0.8,-1.2 -2,-2 -4.1,-2 H183.0999984741211 v19.7 h3.8 c2.2,0 3.3,-0.8 4.1,-2 c0.7000000000000001,-1 0.9,-1.9 0.9,-7.9 C191.8999984741211,60.099999999999994 191.6999984741211,59.099999999999994 190.9999984741211,58.099999999999994 z" id="svg_21"/>
			<path class="st3" d="M206.49999847412107,83.5 v-35 h23.8 v7.7 H215.0999984741211 v5.9 h13 v7.7 h-13 v6.1 h15.2 v7.7 H206.49999847412107 z" id="svg_22"/>
		</g>
	</g>
	<g id="svg_23">
		<g id="svg_24">
			<path class="st2" d="M65.9999984741211,12.100000000000001 c-1.7000000000000002,-1.7000000000000002 -4.1,-2.5 -7.1,-2.5 c-0.8,0 -1.7000000000000002,0.1 -2.5,0.4 c-0.9,0.30000000000000004 -1.7000000000000002,0.7000000000000001 -2.4,1.2 c-0.7000000000000001,0.5 -1.4,1 -1.9,1.4 c-0.5,0.4 -1,0.9 -1.5,1.4 c-0.5,-0.5 -1,-0.9 -1.5,-1.4 c-0.5,-0.4 -1.2,-0.9 -1.9,-1.4 c-0.7000000000000001,-0.5 -1.6,-0.9 -2.4,-1.2 c-0.9,-0.30000000000000004 -1.7000000000000002,-0.4 -2.5,-0.4 c-3,0 -5.4,0.8 -7.1,2.5 c-1.7000000000000002,1.7000000000000002 -2.6,4 -2.6,6.9 c0,0.9 0.2,1.8 0.5,2.8 c0.30000000000000004,1 0.7000000000000001,1.8 1.1,2.4 c0.4,0.7000000000000001 0.9,1.3 1.4,2 c0.5,0.6000000000000001 0.9,1.1 1.1,1.3 c0.2,0.2 0.4,0.4 0.6000000000000001,0.5 l12.6,12.1 c0.2,0.2 0.5,0.4 0.9,0.4 c0.4,0 0.6000000000000001,-0.1 0.9,-0.4 l12.5,-12.1 c3.1,-3.1 4.6,-6.1 4.6,-9.1 C68.4999984741211,16.099999999999994 67.69999847412109,13.799999999999997 65.9999984741211,12.100000000000001 L65.9999984741211,12.100000000000001 zM65.9999984741211,12.100000000000001 " id="svg_25"/>
		</g>
	</g>
</g></g></svg>